# xmcd CD database file
#
# Track frame offsets:
#	150
#	19850
#	40109
#	52314
#	72671
#	89104
#	105795
#	120038
#	140843
#	153547
#	167669
#	186035
#	198841
#	213382
#	234288
#
# Disc length: 3408 seconds
#
# Revision: 0
# Processed by: cddbd v1.4PL0 Copyright (c) Steve Scherf et al.
# Submitted via: CDex 1.50
#
DISCID=ce0d4e0f
DTITLE=Jazz - Fall in Love with Jazz
DYEAR=2003
DGENRE=Jazz
TTITLE0=Cry Me A River
TTITLE1=Corcovado(Quiet Night of Quiet Stars)
TTITLE2=All The way
TTITLE3=When I fall In Love
TTITLE4=The Look Of Love
TTITLE5=Fever
TTITLE6=I Only Have Eyes For You
TTITLE7=My Funny Valentine
TTITLE8=Girl From Ipanema
TTITLE9=When A Man Loves A Woman
TTITLE10=You Send Me
TTITLE11=Feel Like Makin' Love
TTITLE12=Mona Lisa
TTITLE13=How Long Has It Been Going On
TTITLE14=Fields Of Gold
EXTD=YEAR: 2003
EXTT0=
EXTT1=
EXTT2=
EXTT3=
EXTT4=
EXTT5=
EXTT6=
EXTT7=
EXTT8=
EXTT9=
EXTT10=
EXTT11=
EXTT12=
EXTT13=
EXTT14=
PLAYORDER=
